<?xml version="1.0" encoding="UTF-8" standalone="no"?>
<svg version="1.1"
     x="0px"
     y="0px"
     viewBox="0 0 68 68"
     xml:space="preserve"
     id="svg5"
     width="68"
     height="68"
     inkscape:version="1.3.2 (091e20e, 2023-11-25)"
     xmlns:inkscape="http://www.inkscape.org/namespaces/inkscape"
     xmlns:sodipodi="http://sodipodi.sourceforge.net/DTD/sodipodi-0.dtd"
     xmlns="http://www.w3.org/2000/svg"
     xmlns:rdf="http://www.w3.org/1999/02/22-rdf-syntax-ns#"
     xmlns:cc="http://creativecommons.org/ns#"
     xmlns:dc="http://purl.org/dc/elements/1.1/">
	<title>Loeric Logo</title>
	<defs>
		<linearGradient id="blackFadeGrad">
			<stop style="stop-color:#000000;stop-opacity:1;" offset="0"/>
			<stop style="stop-color:#000000;stop-opacity:0;" offset="1"/>
		</linearGradient>
		<linearGradient id="purpleLoveGrad">
			<stop style="stop-color:#cc2b5e;" offset="0"/>
			<stop style="stop-color:#753a88;" offset="1"/>
		</linearGradient>
	</defs>
	<g id="logo" transform="translate(15.271493,3.2239819)">
		<g id="plug">
			<path d="m 9,48.7 c 0.6,-0.4 1,-1 1,-1.7 v -4 h 1 c 0.6,0 1,-0.4 1,-1 V 28 c 0,-0.6 -0.4,-1 -1,-1 v -3 c 0,-0.6 -0.4,-1 -1,-1 V 15 H 2 v 8 c -0.6,0 -1,0.4 -1,1 v 3 c -0.6,0 -1,0.4 -1,1 v 14 c 0,0.6 0.4,1 1,1 h 1 v 4 c 0,0.8 0.4,1.4 1,1.7 z M 8,47 H 4 V 43 H 8 Z M 9,27 H 3 v -2 h 6 z"
			      id="core"
			      sodipodi:nodetypes="cscssscsccccscssscscccccccccccc"
			      style="display:inline"/>
			<polygon points="2,13 10,13 10,11 2,11 "
			         id="pin_2"/>
			<path d="M 2.4,6 C 3,7.1 3,7.9 2.4,9 H 9.5 C 8.9,7.9 8.9,7.1 9.5,6 Z"
			      id="pin_1"/>
			<path d="M 7.9,0.6 C 7.7,0.2 7.4,0 7,0 H 5 C 4.6,0 4.3,0.2 4.1,0.6 L 2.4,4 h 7.2 z"
			      id="just_the_tip"/>
		</g>
		<path d="M 38.180995,54 H 15 C 11.9,54 9.4,51.7 9,48.7 H 3 C 3.4,55 8.6,60 15,60 h 23.180995 z"
		      id="cable"
		      sodipodi:nodetypes="csccscc"
		      style="display:inline;stroke:url(#blackFadeGrad);stroke-opacity:1;fill:url(#purpleLoveGrad);stroke-width:0.5;stroke-dasharray:none;stroke-linejoin:round;stroke-linecap:butt;paint-order:markers fill stroke"/>
	</g>
	<metadata>
		<rdf:RDF>
			<cc:Work>
				<cc:license rdf:resource="http://creativecommons.org/licenses/by/4.0/"/>
				<dc:title>Loeric Logo</dc:title>
				<dc:date>30 April 2025</dc:date>
				<dc:contributor><cc:Agent><dc:title>Based off icon by Smashicons from Noun Project</dc:title></cc:Agent></dc:contributor>
			</cc:Work>
		</rdf:RDF>
	</metadata>
</svg>
