<?xml version="1.0" encoding="UTF-8" standalone="no"?>
<svg
   version="1.1"
   x="0px"
   y="0px"
   viewBox="0 0 68 68"
   xml:space="preserve"
   id="svg5"
   sodipodi:docname="loeric-icon.svg"
   width="68"
   height="68"
   inkscape:export-filename="loeric-32.png"
   inkscape:export-xdpi="45.176472"
   inkscape:export-ydpi="45.176472"
   inkscape:version="1.3.2 (091e20e, 2023-11-25)"
   xmlns:inkscape="http://www.inkscape.org/namespaces/inkscape"
   xmlns:sodipodi="http://sodipodi.sourceforge.net/DTD/sodipodi-0.dtd"
   xmlns:xlink="http://www.w3.org/1999/xlink"
   xmlns="http://www.w3.org/2000/svg"
   xmlns:svg="http://www.w3.org/2000/svg"
   xmlns:rdf="http://www.w3.org/1999/02/22-rdf-syntax-ns#"
   xmlns:cc="http://creativecommons.org/ns#"
   xmlns:dc="http://purl.org/dc/elements/1.1/"><defs
     id="defs5"><linearGradient
       id="linearGradient11"
       inkscape:collect="always"><stop
         style="stop-color:#000000;stop-opacity:1;"
         offset="0"
         id="stop11" /><stop
         style="stop-color:#000000;stop-opacity:0;"
         offset="1"
         id="stop12" /></linearGradient><linearGradient
       id="linearGradient6"
       inkscape:collect="always"><stop
         style="stop-color:#cc2b5e;stop-opacity:1;"
         offset="0"
         id="stop6" /><stop
         style="stop-color:#753a88;stop-opacity:0.93962264;"
         offset="1"
         id="stop7" /></linearGradient><linearGradient
       inkscape:collect="always"
       xlink:href="#linearGradient6"
       id="linearGradient10"
       x1="2.4672472"
       y1="54.349998"
       x2="38.680996"
       y2="54.349998"
       gradientUnits="userSpaceOnUse" /><linearGradient
       inkscape:collect="always"
       xlink:href="#linearGradient11"
       id="linearGradient12"
       x1="3"
       y1="54.35"
       x2="38.180995"
       y2="54.35"
       gradientUnits="userSpaceOnUse" /></defs><sodipodi:namedview
     id="namedview5"
     pagecolor="#ffffff"
     bordercolor="#000000"
     borderopacity="0.25"
     inkscape:showpageshadow="2"
     inkscape:pageopacity="0.0"
     inkscape:pagecheckerboard="0"
     inkscape:deskcolor="#d1d1d1"
     showguides="true"
     inkscape:export-bgcolor="#ffffff00"
     inkscape:zoom="5.8933333"
     inkscape:cx="29.270362"
     inkscape:cy="45.729638"
     inkscape:window-width="1392"
     inkscape:window-height="916"
     inkscape:window-x="1665"
     inkscape:window-y="93"
     inkscape:window-maximized="0"
     inkscape:current-layer="g5" /><title
     id="title1">174 -Audio Cable- (Solid)</title><desc
     id="desc1">Created with Sketch.</desc><g
     id="g5"
     transform="translate(15.271493,3.2239819)"><g
       id="g2"
       inkscape:label="plug"><path
         d="m 9,48.7 c 0.6,-0.4 1,-1 1,-1.7 v -4 h 1 c 0.6,0 1,-0.4 1,-1 V 28 c 0,-0.6 -0.4,-1 -1,-1 v -3 c 0,-0.6 -0.4,-1 -1,-1 V 15 H 2 v 8 c -0.6,0 -1,0.4 -1,1 v 3 c -0.6,0 -1,0.4 -1,1 v 14 c 0,0.6 0.4,1 1,1 h 1 v 4 c 0,0.8 0.4,1.4 1,1.7 z M 8,47 H 4 V 43 H 8 Z M 9,27 H 3 v -2 h 6 z"
         id="path5"
         sodipodi:nodetypes="cscssscsccccscssscscccccccccccc"
         style="display:inline"
         inkscape:label="core" /><polygon
         points="2,13 10,13 10,11 2,11 "
         id="polygon1"
         inkscape:label="pin 2" /><path
         d="M 2.4,6 C 3,7.1 3,7.9 2.4,9 H 9.5 C 8.9,7.9 8.9,7.1 9.5,6 Z"
         id="path1"
         inkscape:label="pin 1" /><path
         d="M 7.9,0.6 C 7.7,0.2 7.4,0 7,0 H 5 C 4.6,0 4.3,0.2 4.1,0.6 L 2.4,4 h 7.2 z"
         id="path2"
         inkscape:label="just the tip" /></g><path
       d="M 38.180995,54 H 15 C 11.9,54 9.4,51.7 9,48.7 H 3 C 3.4,55 8.6,60 15,60 h 23.180995 z"
       id="cable"
       sodipodi:nodetypes="csccscc"
       style="display:inline;stroke:url(#linearGradient12);stroke-opacity:1;fill:url(#linearGradient10);stroke-width:0.5;stroke-dasharray:none;stroke-linejoin:round;stroke-linecap:butt;paint-order:markers fill stroke" /></g><metadata
     id="metadata5"><rdf:RDF><cc:Work
         rdf:about=""><dc:title>174 -Audio Cable- (Solid)</dc:title></cc:Work></rdf:RDF></metadata></svg>
